<?xml version="1.0" encoding="UTF-8"?>
<svg width="438" height="80" viewBox="0 0 438 80" xmlns="http://www.w3.org/2000/svg" xmlns:xlink="http://www.w3.org/1999/xlink" xml:space="preserve" version="1.1"  baseProfile="full">
 <g id="mainlayer" font-size="10" style="font-family: monospace">
<rect style="fill:#000" x="0" y="0" width="6" height="10"/>
<rect style="fill:#000" x="6" y="0" width="6" height="10"/>
<rect style="fill:#000" x="12" y="0" width="6" height="10"/>
<rect style="fill:#000" x="18" y="0" width="6" height="10"/>
<rect style="fill:#000" x="24" y="0" width="6" height="10"/>
<rect style="fill:#000" x="30" y="0" width="6" height="10"/>
<rect style="fill:#000" x="36" y="0" width="6" height="10"/>
<rect style="fill:#000" x="42" y="0" width="6" height="10"/>
<rect style="fill:#000" x="48" y="0" width="6" height="10"/>
<rect style="fill:#000" x="54" y="0" width="6" height="10"/>
<rect style="fill:#000" x="60" y="0" width="6" height="10"/>
<rect style="fill:#000" x="66" y="0" width="6" height="10"/>
<rect style="fill:#000" x="72" y="0" width="6" height="10"/>
<rect style="fill:#000" x="78" y="0" width="6" height="10"/>
<rect style="fill:#000" x="84" y="0" width="6" height="10"/>
<rect style="fill:#000" x="90" y="0" width="6" height="10"/>
<rect style="fill:#000" x="96" y="0" width="6" height="10"/>
<rect style="fill:#000" x="102" y="0" width="6" height="10"/>
<rect style="fill:#000" x="108" y="0" width="6" height="10"/>
<rect style="fill:#000" x="114" y="0" width="6" height="10"/>
<rect style="fill:#000" x="120" y="0" width="6" height="10"/>
<rect style="fill:#000" x="126" y="0" width="6" height="10"/>
<rect style="fill:#000" x="132" y="0" width="6" height="10"/>
<rect style="fill:#000" x="138" y="0" width="6" height="10"/>
<rect style="fill:#000" x="144" y="0" width="6" height="10"/>
<rect style="fill:#000" x="150" y="0" width="6" height="10"/>
<rect style="fill:#000" x="156" y="0" width="6" height="10"/>
<rect style="fill:#000" x="162" y="0" width="6" height="10"/>
<rect style="fill:#000" x="168" y="0" width="6" height="10"/>
<rect style="fill:#000" x="174" y="0" width="6" height="10"/>
<rect style="fill:#000" x="180" y="0" width="6" height="10"/>
<rect style="fill:#000" x="186" y="0" width="6" height="10"/>
<rect style="fill:#000" x="192" y="0" width="6" height="10"/>
<rect style="fill:#000" x="198" y="0" width="6" height="10"/>
<rect style="fill:#000" x="204" y="0" width="6" height="10"/>
<rect style="fill:#000" x="210" y="0" width="6" height="10"/>
<rect style="fill:#000" x="216" y="0" width="6" height="10"/>
<rect style="fill:#000" x="222" y="0" width="6" height="10"/>
<rect style="fill:#000" x="228" y="0" width="6" height="10"/>
<rect style="fill:#000" x="234" y="0" width="6" height="10"/>
<rect style="fill:#000" x="240" y="0" width="6" height="10"/>
<rect style="fill:#000" x="246" y="0" width="6" height="10"/>
<rect style="fill:#000" x="252" y="0" width="6" height="10"/>
<rect style="fill:#000" x="258" y="0" width="6" height="10"/>
<rect style="fill:#000" x="264" y="0" width="6" height="10"/>
<rect style="fill:#000" x="270" y="0" width="6" height="10"/>
<rect style="fill:#000" x="276" y="0" width="6" height="10"/>
<rect style="fill:#000" x="282" y="0" width="6" height="10"/>
<rect style="fill:#000" x="288" y="0" width="6" height="10"/>
<rect style="fill:#000" x="294" y="0" width="6" height="10"/>
<rect style="fill:#000" x="300" y="0" width="6" height="10"/>
<rect style="fill:#000" x="306" y="0" width="6" height="10"/>
<rect style="fill:#000" x="312" y="0" width="6" height="10"/>
<rect style="fill:#000" x="318" y="0" width="6" height="10"/>
<rect style="fill:#000" x="324" y="0" width="6" height="10"/>
<rect style="fill:#000" x="330" y="0" width="6" height="10"/>
<rect style="fill:#000" x="336" y="0" width="6" height="10"/>
<rect style="fill:#000" x="342" y="0" width="6" height="10"/>
<rect style="fill:#000" x="348" y="0" width="6" height="10"/>
<rect style="fill:#000" x="354" y="0" width="6" height="10"/>
<rect style="fill:#000" x="360" y="0" width="6" height="10"/>
<rect style="fill:#000" x="366" y="0" width="6" height="10"/>
<rect style="fill:#000" x="372" y="0" width="6" height="10"/>
<rect style="fill:#000" x="378" y="0" width="6" height="10"/>
<rect style="fill:#000" x="384" y="0" width="6" height="10"/>
<rect style="fill:#000" x="390" y="0" width="6" height="10"/>
<rect style="fill:#000" x="396" y="0" width="6" height="10"/>
<rect style="fill:#000" x="402" y="0" width="6" height="10"/>
<rect style="fill:#000" x="408" y="0" width="6" height="10"/>
<rect style="fill:#000" x="414" y="0" width="6" height="10"/>
<rect style="fill:#000" x="420" y="0" width="6" height="10"/>
<rect style="fill:#000" x="426" y="0" width="6" height="10"/>
<rect style="fill:#000" x="432" y="0" width="6" height="10"/>
<rect style="fill:#000" x="0" y="10" width="6" height="10"/>
<rect style="fill:#000" x="6" y="10" width="6" height="10"/>
<rect style="fill:#000" x="12" y="10" width="6" height="10"/>
<rect style="fill:#000" x="18" y="10" width="6" height="10"/>
<rect style="fill:#000" x="24" y="10" width="6" height="10"/>
<rect style="fill:#000" x="30" y="10" width="6" height="10"/>
<rect style="fill:#000" x="36" y="10" width="6" height="10"/>
<rect style="fill:#000" x="42" y="10" width="6" height="10"/>
<rect style="fill:#000" x="48" y="10" width="6" height="10"/>
<rect style="fill:#000" x="54" y="10" width="6" height="10"/>
<rect style="fill:#000" x="60" y="10" width="6" height="10"/>
<rect style="fill:#000" x="66" y="10" width="6" height="10"/>
<rect style="fill:#000" x="72" y="10" width="6" height="10"/>
<rect style="fill:#000" x="78" y="10" width="6" height="10"/>
<rect style="fill:#000" x="84" y="10" width="6" height="10"/>
<rect style="fill:#000" x="90" y="10" width="6" height="10"/>
<rect style="fill:#000" x="96" y="10" width="6" height="10"/>
<rect style="fill:#000" x="102" y="10" width="6" height="10"/>
<rect style="fill:#000" x="108" y="10" width="6" height="10"/>
<rect style="fill:#000" x="114" y="10" width="6" height="10"/>
<rect style="fill:#000" x="120" y="10" width="6" height="10"/>
<rect style="fill:#000" x="126" y="10" width="6" height="10"/>
<rect style="fill:#000" x="132" y="10" width="6" height="10"/>
<rect style="fill:#000" x="138" y="10" width="6" height="10"/>
<rect style="fill:#000" x="144" y="10" width="6" height="10"/>
<rect style="fill:#000" x="150" y="10" width="6" height="10"/>
<rect style="fill:#000" x="156" y="10" width="6" height="10"/>
<rect style="fill:#000" x="162" y="10" width="6" height="10"/>
<rect style="fill:#000" x="168" y="10" width="6" height="10"/>
<rect style="fill:#000" x="174" y="10" width="6" height="10"/>
<rect style="fill:#000" x="180" y="10" width="6" height="10"/>
<rect style="fill:#000" x="186" y="10" width="6" height="10"/>
<rect style="fill:#000" x="192" y="10" width="6" height="10"/>
<rect style="fill:#000" x="198" y="10" width="6" height="10"/>
<rect style="fill:#000" x="204" y="10" width="6" height="10"/>
<rect style="fill:#000" x="210" y="10" width="6" height="10"/>
<rect style="fill:#000" x="216" y="10" width="6" height="10"/>
<rect style="fill:#000" x="222" y="10" width="6" height="10"/>
<rect style="fill:#000" x="228" y="10" width="6" height="10"/>
<rect style="fill:#000" x="234" y="10" width="6" height="10"/>
<rect style="fill:#000" x="240" y="10" width="6" height="10"/>
<rect style="fill:#000" x="246" y="10" width="6" height="10"/>
<rect style="fill:#000" x="252" y="10" width="6" height="10"/>
<rect style="fill:#000" x="258" y="10" width="6" height="10"/>
<rect style="fill:#000" x="264" y="10" width="6" height="10"/>
<rect style="fill:#000" x="270" y="10" width="6" height="10"/>
<rect style="fill:#000" x="276" y="10" width="6" height="10"/>
<rect style="fill:#000" x="282" y="10" width="6" height="10"/>
<rect style="fill:#000" x="288" y="10" width="6" height="10"/>
<rect style="fill:#000" x="294" y="10" width="6" height="10"/>
<rect style="fill:#000" x="300" y="10" width="6" height="10"/>
<rect style="fill:#000" x="306" y="10" width="6" height="10"/>
<rect style="fill:#000" x="312" y="10" width="6" height="10"/>
<rect style="fill:#000" x="318" y="10" width="6" height="10"/>
<rect style="fill:#000" x="324" y="10" width="6" height="10"/>
<rect style="fill:#000" x="330" y="10" width="6" height="10"/>
<rect style="fill:#000" x="336" y="10" width="6" height="10"/>
<rect style="fill:#000" x="342" y="10" width="6" height="10"/>
<rect style="fill:#000" x="348" y="10" width="6" height="10"/>
<rect style="fill:#000" x="354" y="10" width="6" height="10"/>
<rect style="fill:#000" x="360" y="10" width="6" height="10"/>
<rect style="fill:#000" x="366" y="10" width="6" height="10"/>
<rect style="fill:#000" x="372" y="10" width="6" height="10"/>
<rect style="fill:#000" x="378" y="10" width="6" height="10"/>
<rect style="fill:#000" x="384" y="10" width="6" height="10"/>
<rect style="fill:#000" x="390" y="10" width="6" height="10"/>
<rect style="fill:#000" x="396" y="10" width="6" height="10"/>
<rect style="fill:#000" x="402" y="10" width="6" height="10"/>
<rect style="fill:#000" x="408" y="10" width="6" height="10"/>
<rect style="fill:#000" x="414" y="10" width="6" height="10"/>
<rect style="fill:#000" x="420" y="10" width="6" height="10"/>
<rect style="fill:#000" x="426" y="10" width="6" height="10"/>
<rect style="fill:#000" x="432" y="10" width="6" height="10"/>
<rect style="fill:#000" x="0" y="20" width="6" height="10"/>
<rect style="fill:#000" x="6" y="20" width="6" height="10"/>
<rect style="fill:#000" x="12" y="20" width="6" height="10"/>
<rect style="fill:#000" x="18" y="20" width="6" height="10"/>
<rect style="fill:#000" x="24" y="20" width="6" height="10"/>
<rect style="fill:#000" x="30" y="20" width="6" height="10"/>
<rect style="fill:#000" x="36" y="20" width="6" height="10"/>
<rect style="fill:#000" x="42" y="20" width="6" height="10"/>
<rect style="fill:#000" x="48" y="20" width="6" height="10"/>
<rect style="fill:#000" x="54" y="20" width="6" height="10"/>
<rect style="fill:#000" x="60" y="20" width="6" height="10"/>
<rect style="fill:#000" x="66" y="20" width="6" height="10"/>
<rect style="fill:#000" x="72" y="20" width="6" height="10"/>
<rect style="fill:#000" x="78" y="20" width="6" height="10"/>
<rect style="fill:#000" x="84" y="20" width="6" height="10"/>
<rect style="fill:#000" x="90" y="20" width="6" height="10"/>
<rect style="fill:#000" x="96" y="20" width="6" height="10"/>
<rect style="fill:#000" x="102" y="20" width="6" height="10"/>
<rect style="fill:#000" x="108" y="20" width="6" height="10"/>
<rect style="fill:#000" x="114" y="20" width="6" height="10"/>
<rect style="fill:#000" x="120" y="20" width="6" height="10"/>
<rect style="fill:#000" x="126" y="20" width="6" height="10"/>
<rect style="fill:#000" x="132" y="20" width="6" height="10"/>
<rect style="fill:#000" x="138" y="20" width="6" height="10"/>
<rect style="fill:#000" x="144" y="20" width="6" height="10"/>
<rect style="fill:#000" x="150" y="20" width="6" height="10"/>
<rect style="fill:#000" x="156" y="20" width="6" height="10"/>
<rect style="fill:#000" x="162" y="20" width="6" height="10"/>
<rect style="fill:#000" x="168" y="20" width="6" height="10"/>
<rect style="fill:#000" x="174" y="20" width="6" height="10"/>
<rect style="fill:#000" x="180" y="20" width="6" height="10"/>
<rect style="fill:#000" x="186" y="20" width="6" height="10"/>
<rect style="fill:#000" x="192" y="20" width="6" height="10"/>
<rect style="fill:#000" x="198" y="20" width="6" height="10"/>
<rect style="fill:#000" x="204" y="20" width="6" height="10"/>
<rect style="fill:#000" x="210" y="20" width="6" height="10"/>
<rect style="fill:#000" x="216" y="20" width="6" height="10"/>
<rect style="fill:#000" x="222" y="20" width="6" height="10"/>
<rect style="fill:#000" x="228" y="20" width="6" height="10"/>
<rect style="fill:#000" x="234" y="20" width="6" height="10"/>
<rect style="fill:#000" x="240" y="20" width="6" height="10"/>
<rect style="fill:#000" x="246" y="20" width="6" height="10"/>
<rect style="fill:#000" x="252" y="20" width="6" height="10"/>
<rect style="fill:#000" x="258" y="20" width="6" height="10"/>
<rect style="fill:#000" x="264" y="20" width="6" height="10"/>
<rect style="fill:#000" x="270" y="20" width="6" height="10"/>
<rect style="fill:#000" x="276" y="20" width="6" height="10"/>
<rect style="fill:#000" x="282" y="20" width="6" height="10"/>
<rect style="fill:#000" x="288" y="20" width="6" height="10"/>
<rect style="fill:#000" x="294" y="20" width="6" height="10"/>
<rect style="fill:#000" x="300" y="20" width="6" height="10"/>
<rect style="fill:#000" x="306" y="20" width="6" height="10"/>
<rect style="fill:#000" x="312" y="20" width="6" height="10"/>
<rect style="fill:#000" x="318" y="20" width="6" height="10"/>
<rect style="fill:#000" x="324" y="20" width="6" height="10"/>
<rect style="fill:#000" x="330" y="20" width="6" height="10"/>
<rect style="fill:#000" x="336" y="20" width="6" height="10"/>
<rect style="fill:#000" x="342" y="20" width="6" height="10"/>
<rect style="fill:#000" x="348" y="20" width="6" height="10"/>
<rect style="fill:#000" x="354" y="20" width="6" height="10"/>
<rect style="fill:#000" x="360" y="20" width="6" height="10"/>
<rect style="fill:#000" x="366" y="20" width="6" height="10"/>
<rect style="fill:#000" x="372" y="20" width="6" height="10"/>
<rect style="fill:#000" x="378" y="20" width="6" height="10"/>
<rect style="fill:#000" x="384" y="20" width="6" height="10"/>
<rect style="fill:#000" x="390" y="20" width="6" height="10"/>
<rect style="fill:#000" x="396" y="20" width="6" height="10"/>
<rect style="fill:#000" x="402" y="20" width="6" height="10"/>
<rect style="fill:#000" x="408" y="20" width="6" height="10"/>
<rect style="fill:#000" x="414" y="20" width="6" height="10"/>
<rect style="fill:#000" x="420" y="20" width="6" height="10"/>
<rect style="fill:#000" x="426" y="20" width="6" height="10"/>
<rect style="fill:#000" x="432" y="20" width="6" height="10"/>
<rect style="fill:#000" x="0" y="30" width="6" height="10"/>
<rect style="fill:#000" x="6" y="30" width="6" height="10"/>
<rect style="fill:#000" x="12" y="30" width="6" height="10"/>
<rect style="fill:#000" x="18" y="30" width="6" height="10"/>
<rect style="fill:#000" x="24" y="30" width="6" height="10"/>
<rect style="fill:#000" x="30" y="30" width="6" height="10"/>
<rect style="fill:#000" x="36" y="30" width="6" height="10"/>
<rect style="fill:#000" x="42" y="30" width="6" height="10"/>
<rect style="fill:#000" x="48" y="30" width="6" height="10"/>
<rect style="fill:#000" x="54" y="30" width="6" height="10"/>
<rect style="fill:#000" x="60" y="30" width="6" height="10"/>
<rect style="fill:#000" x="66" y="30" width="6" height="10"/>
<rect style="fill:#000" x="72" y="30" width="6" height="10"/>
<rect style="fill:#000" x="78" y="30" width="6" height="10"/>
<rect style="fill:#000" x="84" y="30" width="6" height="10"/>
<rect style="fill:#000" x="90" y="30" width="6" height="10"/>
<rect style="fill:#000" x="96" y="30" width="6" height="10"/>
<rect style="fill:#000" x="102" y="30" width="6" height="10"/>
<rect style="fill:#000" x="108" y="30" width="6" height="10"/>
<rect style="fill:#000" x="114" y="30" width="6" height="10"/>
<rect style="fill:#000" x="120" y="30" width="6" height="10"/>
<rect style="fill:#000" x="126" y="30" width="6" height="10"/>
<rect style="fill:#000" x="132" y="30" width="6" height="10"/>
<rect style="fill:#000" x="138" y="30" width="6" height="10"/>
<rect style="fill:#000" x="144" y="30" width="6" height="10"/>
<rect style="fill:#000" x="150" y="30" width="6" height="10"/>
<rect style="fill:#000" x="156" y="30" width="6" height="10"/>
<rect style="fill:#000" x="162" y="30" width="6" height="10"/>
<rect style="fill:#000" x="168" y="30" width="6" height="10"/>
<rect style="fill:#000" x="174" y="30" width="6" height="10"/>
<rect style="fill:#000" x="180" y="30" width="6" height="10"/>
<rect style="fill:#000" x="186" y="30" width="6" height="10"/>
<rect style="fill:#000" x="192" y="30" width="6" height="10"/>
<rect style="fill:#000" x="198" y="30" width="6" height="10"/>
<rect style="fill:#000" x="204" y="30" width="6" height="10"/>
<rect style="fill:#000" x="210" y="30" width="6" height="10"/>
<rect style="fill:#000" x="216" y="30" width="6" height="10"/>
<rect style="fill:#000" x="222" y="30" width="6" height="10"/>
<rect style="fill:#000" x="228" y="30" width="6" height="10"/>
<rect style="fill:#000" x="234" y="30" width="6" height="10"/>
<rect style="fill:#000" x="240" y="30" width="6" height="10"/>
<rect style="fill:#000" x="246" y="30" width="6" height="10"/>
<rect style="fill:#000" x="252" y="30" width="6" height="10"/>
<rect style="fill:#000" x="258" y="30" width="6" height="10"/>
<rect style="fill:#000" x="264" y="30" width="6" height="10"/>
<rect style="fill:#000" x="270" y="30" width="6" height="10"/>
<rect style="fill:#000" x="276" y="30" width="6" height="10"/>
<rect style="fill:#000" x="282" y="30" width="6" height="10"/>
<rect style="fill:#000" x="288" y="30" width="6" height="10"/>
<rect style="fill:#000" x="294" y="30" width="6" height="10"/>
<rect style="fill:#000" x="300" y="30" width="6" height="10"/>
<rect style="fill:#000" x="306" y="30" width="6" height="10"/>
<rect style="fill:#000" x="312" y="30" width="6" height="10"/>
<rect style="fill:#000" x="318" y="30" width="6" height="10"/>
<rect style="fill:#000" x="324" y="30" width="6" height="10"/>
<rect style="fill:#000" x="330" y="30" width="6" height="10"/>
<rect style="fill:#000" x="336" y="30" width="6" height="10"/>
<rect style="fill:#000" x="342" y="30" width="6" height="10"/>
<rect style="fill:#000" x="348" y="30" width="6" height="10"/>
<rect style="fill:#000" x="354" y="30" width="6" height="10"/>
<rect style="fill:#000" x="360" y="30" width="6" height="10"/>
<rect style="fill:#000" x="366" y="30" width="6" height="10"/>
<rect style="fill:#000" x="372" y="30" width="6" height="10"/>
<rect style="fill:#000" x="378" y="30" width="6" height="10"/>
<rect style="fill:#000" x="384" y="30" width="6" height="10"/>
<rect style="fill:#000" x="390" y="30" width="6" height="10"/>
<rect style="fill:#000" x="396" y="30" width="6" height="10"/>
<rect style="fill:#000" x="402" y="30" width="6" height="10"/>
<rect style="fill:#000" x="408" y="30" width="6" height="10"/>
<rect style="fill:#000" x="414" y="30" width="6" height="10"/>
<rect style="fill:#000" x="420" y="30" width="6" height="10"/>
<rect style="fill:#000" x="426" y="30" width="6" height="10"/>
<rect style="fill:#000" x="432" y="30" width="6" height="10"/>
<rect style="fill:#000" x="0" y="40" width="6" height="10"/>
<rect style="fill:#000" x="6" y="40" width="6" height="10"/>
<rect style="fill:#000" x="12" y="40" width="6" height="10"/>
<rect style="fill:#000" x="18" y="40" width="6" height="10"/>
<rect style="fill:#000" x="24" y="40" width="6" height="10"/>
<rect style="fill:#000" x="30" y="40" width="6" height="10"/>
<rect style="fill:#000" x="36" y="40" width="6" height="10"/>
<rect style="fill:#000" x="42" y="40" width="6" height="10"/>
<rect style="fill:#000" x="48" y="40" width="6" height="10"/>
<rect style="fill:#000" x="54" y="40" width="6" height="10"/>
<rect style="fill:#000" x="60" y="40" width="6" height="10"/>
<rect style="fill:#000" x="66" y="40" width="6" height="10"/>
<rect style="fill:#000" x="72" y="40" width="6" height="10"/>
<rect style="fill:#000" x="78" y="40" width="6" height="10"/>
<rect style="fill:#000" x="84" y="40" width="6" height="10"/>
<rect style="fill:#000" x="90" y="40" width="6" height="10"/>
<rect style="fill:#000" x="96" y="40" width="6" height="10"/>
<rect style="fill:#000" x="102" y="40" width="6" height="10"/>
<rect style="fill:#000" x="108" y="40" width="6" height="10"/>
<rect style="fill:#000" x="114" y="40" width="6" height="10"/>
<rect style="fill:#000" x="120" y="40" width="6" height="10"/>
<rect style="fill:#000" x="126" y="40" width="6" height="10"/>
<rect style="fill:#000" x="132" y="40" width="6" height="10"/>
<rect style="fill:#000" x="138" y="40" width="6" height="10"/>
<rect style="fill:#000" x="144" y="40" width="6" height="10"/>
<rect style="fill:#000" x="150" y="40" width="6" height="10"/>
<rect style="fill:#000" x="156" y="40" width="6" height="10"/>
<rect style="fill:#000" x="162" y="40" width="6" height="10"/>
<rect style="fill:#000" x="168" y="40" width="6" height="10"/>
<rect style="fill:#000" x="174" y="40" width="6" height="10"/>
<rect style="fill:#000" x="180" y="40" width="6" height="10"/>
<rect style="fill:#000" x="186" y="40" width="6" height="10"/>
<rect style="fill:#000" x="192" y="40" width="6" height="10"/>
<rect style="fill:#000" x="198" y="40" width="6" height="10"/>
<rect style="fill:#000" x="204" y="40" width="6" height="10"/>
<rect style="fill:#000" x="210" y="40" width="6" height="10"/>
<rect style="fill:#000" x="216" y="40" width="6" height="10"/>
<rect style="fill:#000" x="222" y="40" width="6" height="10"/>
<rect style="fill:#000" x="228" y="40" width="6" height="10"/>
<rect style="fill:#000" x="234" y="40" width="6" height="10"/>
<rect style="fill:#000" x="240" y="40" width="6" height="10"/>
<rect style="fill:#000" x="246" y="40" width="6" height="10"/>
<rect style="fill:#000" x="252" y="40" width="6" height="10"/>
<rect style="fill:#000" x="258" y="40" width="6" height="10"/>
<rect style="fill:#000" x="264" y="40" width="6" height="10"/>
<rect style="fill:#000" x="270" y="40" width="6" height="10"/>
<rect style="fill:#000" x="276" y="40" width="6" height="10"/>
<rect style="fill:#000" x="282" y="40" width="6" height="10"/>
<rect style="fill:#000" x="288" y="40" width="6" height="10"/>
<rect style="fill:#000" x="294" y="40" width="6" height="10"/>
<rect style="fill:#000" x="300" y="40" width="6" height="10"/>
<rect style="fill:#000" x="306" y="40" width="6" height="10"/>
<rect style="fill:#000" x="312" y="40" width="6" height="10"/>
<rect style="fill:#000" x="318" y="40" width="6" height="10"/>
<rect style="fill:#000" x="324" y="40" width="6" height="10"/>
<rect style="fill:#000" x="330" y="40" width="6" height="10"/>
<rect style="fill:#000" x="336" y="40" width="6" height="10"/>
<rect style="fill:#000" x="342" y="40" width="6" height="10"/>
<rect style="fill:#000" x="348" y="40" width="6" height="10"/>
<rect style="fill:#000" x="354" y="40" width="6" height="10"/>
<rect style="fill:#000" x="360" y="40" width="6" height="10"/>
<rect style="fill:#000" x="366" y="40" width="6" height="10"/>
<rect style="fill:#000" x="372" y="40" width="6" height="10"/>
<rect style="fill:#000" x="378" y="40" width="6" height="10"/>
<rect style="fill:#000" x="384" y="40" width="6" height="10"/>
<rect style="fill:#000" x="390" y="40" width="6" height="10"/>
<rect style="fill:#000" x="396" y="40" width="6" height="10"/>
<rect style="fill:#000" x="402" y="40" width="6" height="10"/>
<rect style="fill:#000" x="408" y="40" width="6" height="10"/>
<rect style="fill:#000" x="414" y="40" width="6" height="10"/>
<rect style="fill:#000" x="420" y="40" width="6" height="10"/>
<rect style="fill:#000" x="426" y="40" width="6" height="10"/>
<rect style="fill:#000" x="432" y="40" width="6" height="10"/>
<rect style="fill:#000" x="0" y="50" width="6" height="10"/>
<rect style="fill:#000" x="6" y="50" width="6" height="10"/>
<rect style="fill:#000" x="12" y="50" width="6" height="10"/>
<rect style="fill:#000" x="18" y="50" width="6" height="10"/>
<rect style="fill:#000" x="24" y="50" width="6" height="10"/>
<rect style="fill:#000" x="30" y="50" width="6" height="10"/>
<rect style="fill:#000" x="36" y="50" width="6" height="10"/>
<rect style="fill:#000" x="42" y="50" width="6" height="10"/>
<rect style="fill:#000" x="48" y="50" width="6" height="10"/>
<rect style="fill:#000" x="54" y="50" width="6" height="10"/>
<rect style="fill:#000" x="60" y="50" width="6" height="10"/>
<rect style="fill:#000" x="66" y="50" width="6" height="10"/>
<rect style="fill:#000" x="72" y="50" width="6" height="10"/>
<rect style="fill:#000" x="78" y="50" width="6" height="10"/>
<rect style="fill:#000" x="84" y="50" width="6" height="10"/>
<rect style="fill:#000" x="90" y="50" width="6" height="10"/>
<rect style="fill:#000" x="96" y="50" width="6" height="10"/>
<rect style="fill:#000" x="102" y="50" width="6" height="10"/>
<rect style="fill:#000" x="108" y="50" width="6" height="10"/>
<rect style="fill:#000" x="114" y="50" width="6" height="10"/>
<rect style="fill:#000" x="120" y="50" width="6" height="10"/>
<rect style="fill:#000" x="126" y="50" width="6" height="10"/>
<rect style="fill:#000" x="132" y="50" width="6" height="10"/>
<rect style="fill:#000" x="138" y="50" width="6" height="10"/>
<rect style="fill:#000" x="144" y="50" width="6" height="10"/>
<rect style="fill:#000" x="150" y="50" width="6" height="10"/>
<rect style="fill:#000" x="156" y="50" width="6" height="10"/>
<rect style="fill:#000" x="162" y="50" width="6" height="10"/>
<rect style="fill:#000" x="168" y="50" width="6" height="10"/>
<rect style="fill:#000" x="174" y="50" width="6" height="10"/>
<rect style="fill:#000" x="180" y="50" width="6" height="10"/>
<rect style="fill:#000" x="186" y="50" width="6" height="10"/>
<rect style="fill:#000" x="192" y="50" width="6" height="10"/>
<rect style="fill:#000" x="198" y="50" width="6" height="10"/>
<rect style="fill:#000" x="204" y="50" width="6" height="10"/>
<rect style="fill:#000" x="210" y="50" width="6" height="10"/>
<rect style="fill:#000" x="216" y="50" width="6" height="10"/>
<rect style="fill:#000" x="222" y="50" width="6" height="10"/>
<rect style="fill:#000" x="228" y="50" width="6" height="10"/>
<rect style="fill:#000" x="234" y="50" width="6" height="10"/>
<rect style="fill:#000" x="240" y="50" width="6" height="10"/>
<rect style="fill:#000" x="246" y="50" width="6" height="10"/>
<rect style="fill:#000" x="252" y="50" width="6" height="10"/>
<rect style="fill:#000" x="258" y="50" width="6" height="10"/>
<rect style="fill:#000" x="264" y="50" width="6" height="10"/>
<rect style="fill:#000" x="270" y="50" width="6" height="10"/>
<rect style="fill:#000" x="276" y="50" width="6" height="10"/>
<rect style="fill:#000" x="282" y="50" width="6" height="10"/>
<rect style="fill:#000" x="288" y="50" width="6" height="10"/>
<rect style="fill:#000" x="294" y="50" width="6" height="10"/>
<rect style="fill:#000" x="300" y="50" width="6" height="10"/>
<rect style="fill:#000" x="306" y="50" width="6" height="10"/>
<rect style="fill:#000" x="312" y="50" width="6" height="10"/>
<rect style="fill:#000" x="318" y="50" width="6" height="10"/>
<rect style="fill:#000" x="324" y="50" width="6" height="10"/>
<rect style="fill:#000" x="330" y="50" width="6" height="10"/>
<rect style="fill:#000" x="336" y="50" width="6" height="10"/>
<rect style="fill:#000" x="342" y="50" width="6" height="10"/>
<rect style="fill:#000" x="348" y="50" width="6" height="10"/>
<rect style="fill:#000" x="354" y="50" width="6" height="10"/>
<rect style="fill:#000" x="360" y="50" width="6" height="10"/>
<rect style="fill:#000" x="366" y="50" width="6" height="10"/>
<rect style="fill:#000" x="372" y="50" width="6" height="10"/>
<rect style="fill:#000" x="378" y="50" width="6" height="10"/>
<rect style="fill:#000" x="384" y="50" width="6" height="10"/>
<rect style="fill:#000" x="390" y="50" width="6" height="10"/>
<rect style="fill:#000" x="396" y="50" width="6" height="10"/>
<rect style="fill:#000" x="402" y="50" width="6" height="10"/>
<rect style="fill:#000" x="408" y="50" width="6" height="10"/>
<rect style="fill:#000" x="414" y="50" width="6" height="10"/>
<rect style="fill:#000" x="420" y="50" width="6" height="10"/>
<rect style="fill:#000" x="426" y="50" width="6" height="10"/>
<rect style="fill:#000" x="432" y="50" width="6" height="10"/>
<rect style="fill:#000" x="0" y="60" width="6" height="10"/>
<rect style="fill:#000" x="6" y="60" width="6" height="10"/>
<rect style="fill:#000" x="12" y="60" width="6" height="10"/>
<rect style="fill:#000" x="18" y="60" width="6" height="10"/>
<rect style="fill:#000" x="24" y="60" width="6" height="10"/>
<rect style="fill:#000" x="30" y="60" width="6" height="10"/>
<rect style="fill:#000" x="36" y="60" width="6" height="10"/>
<rect style="fill:#000" x="42" y="60" width="6" height="10"/>
<rect style="fill:#000" x="48" y="60" width="6" height="10"/>
<rect style="fill:#000" x="54" y="60" width="6" height="10"/>
<rect style="fill:#000" x="60" y="60" width="6" height="10"/>
<rect style="fill:#000" x="66" y="60" width="6" height="10"/>
<rect style="fill:#000" x="72" y="60" width="6" height="10"/>
<rect style="fill:#000" x="78" y="60" width="6" height="10"/>
<rect style="fill:#000" x="84" y="60" width="6" height="10"/>
<rect style="fill:#000" x="90" y="60" width="6" height="10"/>
<rect style="fill:#000" x="96" y="60" width="6" height="10"/>
<rect style="fill:#000" x="102" y="60" width="6" height="10"/>
<rect style="fill:#000" x="108" y="60" width="6" height="10"/>
<rect style="fill:#000" x="114" y="60" width="6" height="10"/>
<rect style="fill:#000" x="120" y="60" width="6" height="10"/>
<rect style="fill:#000" x="126" y="60" width="6" height="10"/>
<rect style="fill:#000" x="132" y="60" width="6" height="10"/>
<rect style="fill:#000" x="138" y="60" width="6" height="10"/>
<rect style="fill:#000" x="144" y="60" width="6" height="10"/>
<rect style="fill:#000" x="150" y="60" width="6" height="10"/>
<rect style="fill:#000" x="156" y="60" width="6" height="10"/>
<rect style="fill:#000" x="162" y="60" width="6" height="10"/>
<rect style="fill:#000" x="168" y="60" width="6" height="10"/>
<rect style="fill:#000" x="174" y="60" width="6" height="10"/>
<rect style="fill:#000" x="180" y="60" width="6" height="10"/>
<rect style="fill:#000" x="186" y="60" width="6" height="10"/>
<rect style="fill:#000" x="192" y="60" width="6" height="10"/>
<rect style="fill:#000" x="198" y="60" width="6" height="10"/>
<rect style="fill:#000" x="204" y="60" width="6" height="10"/>
<rect style="fill:#000" x="210" y="60" width="6" height="10"/>
<rect style="fill:#000" x="216" y="60" width="6" height="10"/>
<rect style="fill:#000" x="222" y="60" width="6" height="10"/>
<rect style="fill:#000" x="228" y="60" width="6" height="10"/>
<rect style="fill:#000" x="234" y="60" width="6" height="10"/>
<rect style="fill:#000" x="240" y="60" width="6" height="10"/>
<rect style="fill:#000" x="246" y="60" width="6" height="10"/>
<rect style="fill:#000" x="252" y="60" width="6" height="10"/>
<rect style="fill:#000" x="258" y="60" width="6" height="10"/>
<rect style="fill:#000" x="264" y="60" width="6" height="10"/>
<rect style="fill:#000" x="270" y="60" width="6" height="10"/>
<rect style="fill:#000" x="276" y="60" width="6" height="10"/>
<rect style="fill:#000" x="282" y="60" width="6" height="10"/>
<rect style="fill:#000" x="288" y="60" width="6" height="10"/>
<rect style="fill:#000" x="294" y="60" width="6" height="10"/>
<rect style="fill:#000" x="300" y="60" width="6" height="10"/>
<rect style="fill:#000" x="306" y="60" width="6" height="10"/>
<rect style="fill:#000" x="312" y="60" width="6" height="10"/>
<rect style="fill:#000" x="318" y="60" width="6" height="10"/>
<rect style="fill:#000" x="324" y="60" width="6" height="10"/>
<rect style="fill:#000" x="330" y="60" width="6" height="10"/>
<rect style="fill:#000" x="336" y="60" width="6" height="10"/>
<rect style="fill:#000" x="342" y="60" width="6" height="10"/>
<rect style="fill:#000" x="348" y="60" width="6" height="10"/>
<rect style="fill:#000" x="354" y="60" width="6" height="10"/>
<rect style="fill:#000" x="360" y="60" width="6" height="10"/>
<rect style="fill:#000" x="366" y="60" width="6" height="10"/>
<rect style="fill:#000" x="372" y="60" width="6" height="10"/>
<rect style="fill:#000" x="378" y="60" width="6" height="10"/>
<rect style="fill:#000" x="384" y="60" width="6" height="10"/>
<rect style="fill:#000" x="390" y="60" width="6" height="10"/>
<rect style="fill:#000" x="396" y="60" width="6" height="10"/>
<rect style="fill:#000" x="402" y="60" width="6" height="10"/>
<rect style="fill:#000" x="408" y="60" width="6" height="10"/>
<rect style="fill:#000" x="414" y="60" width="6" height="10"/>
<rect style="fill:#000" x="420" y="60" width="6" height="10"/>
<rect style="fill:#000" x="426" y="60" width="6" height="10"/>
<rect style="fill:#000" x="432" y="60" width="6" height="10"/>
<rect style="fill:#000" x="0" y="70" width="6" height="10"/>
<rect style="fill:#000" x="6" y="70" width="6" height="10"/>
<rect style="fill:#000" x="12" y="70" width="6" height="10"/>
<rect style="fill:#000" x="18" y="70" width="6" height="10"/>
<rect style="fill:#000" x="24" y="70" width="6" height="10"/>
<rect style="fill:#000" x="30" y="70" width="6" height="10"/>
<rect style="fill:#000" x="36" y="70" width="6" height="10"/>
<rect style="fill:#000" x="42" y="70" width="6" height="10"/>
<rect style="fill:#000" x="48" y="70" width="6" height="10"/>
<rect style="fill:#000" x="54" y="70" width="6" height="10"/>
<rect style="fill:#000" x="60" y="70" width="6" height="10"/>
<rect style="fill:#000" x="66" y="70" width="6" height="10"/>
<rect style="fill:#000" x="72" y="70" width="6" height="10"/>
<rect style="fill:#000" x="78" y="70" width="6" height="10"/>
<rect style="fill:#000" x="84" y="70" width="6" height="10"/>
<rect style="fill:#000" x="90" y="70" width="6" height="10"/>
<rect style="fill:#000" x="96" y="70" width="6" height="10"/>
<rect style="fill:#000" x="102" y="70" width="6" height="10"/>
<rect style="fill:#000" x="108" y="70" width="6" height="10"/>
<rect style="fill:#000" x="114" y="70" width="6" height="10"/>
<rect style="fill:#000" x="120" y="70" width="6" height="10"/>
<rect style="fill:#000" x="126" y="70" width="6" height="10"/>
<rect style="fill:#000" x="132" y="70" width="6" height="10"/>
<rect style="fill:#000" x="138" y="70" width="6" height="10"/>
<rect style="fill:#000" x="144" y="70" width="6" height="10"/>
<rect style="fill:#000" x="150" y="70" width="6" height="10"/>
<rect style="fill:#000" x="156" y="70" width="6" height="10"/>
<rect style="fill:#000" x="162" y="70" width="6" height="10"/>
<rect style="fill:#000" x="168" y="70" width="6" height="10"/>
<rect style="fill:#000" x="174" y="70" width="6" height="10"/>
<rect style="fill:#000" x="180" y="70" width="6" height="10"/>
<rect style="fill:#000" x="186" y="70" width="6" height="10"/>
<rect style="fill:#000" x="192" y="70" width="6" height="10"/>
<rect style="fill:#000" x="198" y="70" width="6" height="10"/>
<rect style="fill:#000" x="204" y="70" width="6" height="10"/>
<rect style="fill:#000" x="210" y="70" width="6" height="10"/>
<rect style="fill:#000" x="216" y="70" width="6" height="10"/>
<rect style="fill:#000" x="222" y="70" width="6" height="10"/>
<rect style="fill:#000" x="228" y="70" width="6" height="10"/>
<rect style="fill:#000" x="234" y="70" width="6" height="10"/>
<rect style="fill:#000" x="240" y="70" width="6" height="10"/>
<rect style="fill:#000" x="246" y="70" width="6" height="10"/>
<rect style="fill:#000" x="252" y="70" width="6" height="10"/>
<rect style="fill:#000" x="258" y="70" width="6" height="10"/>
<rect style="fill:#000" x="264" y="70" width="6" height="10"/>
<rect style="fill:#000" x="270" y="70" width="6" height="10"/>
<rect style="fill:#000" x="276" y="70" width="6" height="10"/>
<rect style="fill:#000" x="282" y="70" width="6" height="10"/>
<rect style="fill:#000" x="288" y="70" width="6" height="10"/>
<rect style="fill:#000" x="294" y="70" width="6" height="10"/>
<rect style="fill:#000" x="300" y="70" width="6" height="10"/>
<rect style="fill:#000" x="306" y="70" width="6" height="10"/>
<rect style="fill:#000" x="312" y="70" width="6" height="10"/>
<rect style="fill:#000" x="318" y="70" width="6" height="10"/>
<rect style="fill:#000" x="324" y="70" width="6" height="10"/>
<rect style="fill:#000" x="330" y="70" width="6" height="10"/>
<rect style="fill:#000" x="336" y="70" width="6" height="10"/>
<rect style="fill:#000" x="342" y="70" width="6" height="10"/>
<rect style="fill:#000" x="348" y="70" width="6" height="10"/>
<rect style="fill:#000" x="354" y="70" width="6" height="10"/>
<rect style="fill:#000" x="360" y="70" width="6" height="10"/>
<rect style="fill:#000" x="366" y="70" width="6" height="10"/>
<rect style="fill:#000" x="372" y="70" width="6" height="10"/>
<rect style="fill:#000" x="378" y="70" width="6" height="10"/>
<rect style="fill:#000" x="384" y="70" width="6" height="10"/>
<rect style="fill:#000" x="390" y="70" width="6" height="10"/>
<rect style="fill:#000" x="396" y="70" width="6" height="10"/>
<rect style="fill:#000" x="402" y="70" width="6" height="10"/>
<rect style="fill:#000" x="408" y="70" width="6" height="10"/>
<rect style="fill:#000" x="414" y="70" width="6" height="10"/>
<rect style="fill:#000" x="420" y="70" width="6" height="10"/>
<rect style="fill:#000" x="426" y="70" width="6" height="10"/>
<rect style="fill:#000" x="432" y="70" width="6" height="10"/>
<text style="fill:#aaa" x="24" y="18">_</text>
<text style="fill:#aaa" x="30" y="18">/</text>
<text style="fill:#aaa" x="60" y="18">_</text>
<text style="fill:#aaa" x="66" y="18">/</text>
<text style="fill:#aaa" x="84" y="18">_</text>
<text style="fill:#aaa" x="90" y="18">/</text>
<text style="fill:#aaa" x="132" y="18">_</text>
<text style="fill:#aaa" x="138" y="18">/</text>
<text style="fill:#aaa" x="204" y="18">_</text>
<text style="fill:#aaa" x="210" y="18">/</text>
<text style="fill:#aaa" x="348" y="18">_</text>
<text style="fill:#aaa" x="354" y="18">/</text>
<text style="fill:#aaa" x="408" y="18">_</text>
<text style="fill:#aaa" x="414" y="18">/</text>
<text style="fill:#aaa" x="18" y="28">_</text>
<text style="fill:#aaa" x="24" y="28">/</text>
<text style="fill:#aaa" x="54" y="28">_</text>
<text style="fill:#aaa" x="60" y="28">/</text>
<text style="fill:#aaa" x="126" y="28">_</text>
<text style="fill:#aaa" x="132" y="28">/</text>
<text style="fill:#aaa" x="198" y="28">_</text>
<text style="fill:#aaa" x="204" y="28">/</text>
<text style="fill:#aaa" x="234" y="28">_</text>
<text style="fill:#aaa" x="240" y="28">/</text>
<text style="fill:#aaa" x="246" y="28">_</text>
<text style="fill:#aaa" x="252" y="28">/</text>
<text style="fill:#aaa" x="282" y="28">_</text>
<text style="fill:#aaa" x="288" y="28">/</text>
<text style="fill:#aaa" x="306" y="28">_</text>
<text style="fill:#aaa" x="312" y="28">/</text>
<text style="fill:#aaa" x="318" y="28">_</text>
<text style="fill:#aaa" x="324" y="28">/</text>
<text style="fill:#aaa" x="342" y="28">_</text>
<text style="fill:#aaa" x="348" y="28">/</text>
<text style="fill:#aaa" x="378" y="28">_</text>
<text style="fill:#aaa" x="384" y="28">/</text>
<text style="fill:#aaa" x="390" y="28">_</text>
<text style="fill:#aaa" x="396" y="28">/</text>
<text style="fill:#aaa" x="402" y="28">_</text>
<text style="fill:#aaa" x="408" y="28">/</text>
<text style="fill:#aaa" x="12" y="38">_</text>
<text style="fill:#aaa" x="18" y="38">/</text>
<text style="fill:#aaa" x="24" y="38">_</text>
<text style="fill:#aaa" x="30" y="38">/</text>
<text style="fill:#aaa" x="36" y="38">_</text>
<text style="fill:#aaa" x="42" y="38">/</text>
<text style="fill:#aaa" x="48" y="38">_</text>
<text style="fill:#aaa" x="54" y="38">/</text>
<text style="fill:#aaa" x="72" y="38">_</text>
<text style="fill:#aaa" x="78" y="38">/</text>
<text style="fill:#aaa" x="120" y="38">_</text>
<text style="fill:#aaa" x="126" y="38">/</text>
<text style="fill:#aaa" x="156" y="38">_</text>
<text style="fill:#aaa" x="162" y="38">/</text>
<text style="fill:#aaa" x="192" y="38">_</text>
<text style="fill:#aaa" x="198" y="38">/</text>
<text style="fill:#aaa" x="216" y="38">_</text>
<text style="fill:#aaa" x="222" y="38">/</text>
<text style="fill:#aaa" x="252" y="38">_</text>
<text style="fill:#aaa" x="258" y="38">/</text>
<text style="fill:#aaa" x="276" y="38">_</text>
<text style="fill:#aaa" x="282" y="38">/</text>
<text style="fill:#aaa" x="288" y="38">_</text>
<text style="fill:#aaa" x="294" y="38">/</text>
<text style="fill:#aaa" x="336" y="38">_</text>
<text style="fill:#aaa" x="342" y="38">/</text>
<text style="fill:#aaa" x="360" y="38">_</text>
<text style="fill:#aaa" x="366" y="38">/</text>
<text style="fill:#aaa" x="396" y="38">_</text>
<text style="fill:#aaa" x="402" y="38">/</text>
<text style="fill:#aaa" x="6" y="48">_</text>
<text style="fill:#aaa" x="12" y="48">/</text>
<text style="fill:#aaa" x="42" y="48">_</text>
<text style="fill:#aaa" x="48" y="48">/</text>
<text style="fill:#aaa" x="66" y="48">_</text>
<text style="fill:#aaa" x="72" y="48">/</text>
<text style="fill:#aaa" x="126" y="48">_</text>
<text style="fill:#aaa" x="132" y="48">/</text>
<text style="fill:#aaa" x="150" y="48">_</text>
<text style="fill:#aaa" x="156" y="48">/</text>
<text style="fill:#aaa" x="174" y="48">_</text>
<text style="fill:#aaa" x="180" y="48">/</text>
<text style="fill:#aaa" x="210" y="48">_</text>
<text style="fill:#aaa" x="216" y="48">/</text>
<text style="fill:#aaa" x="246" y="48">_</text>
<text style="fill:#aaa" x="252" y="48">/</text>
<text style="fill:#aaa" x="270" y="48">_</text>
<text style="fill:#aaa" x="276" y="48">/</text>
<text style="fill:#aaa" x="330" y="48">_</text>
<text style="fill:#aaa" x="336" y="48">/</text>
<text style="fill:#aaa" x="354" y="48">_</text>
<text style="fill:#aaa" x="360" y="48">/</text>
<text style="fill:#aaa" x="390" y="48">_</text>
<text style="fill:#aaa" x="396" y="48">/</text>
<text style="fill:#aaa" x="0" y="58">_</text>
<text style="fill:#aaa" x="6" y="58">/</text>
<text style="fill:#aaa" x="36" y="58">_</text>
<text style="fill:#aaa" x="42" y="58">/</text>
<text style="fill:#aaa" x="60" y="58">_</text>
<text style="fill:#aaa" x="66" y="58">/</text>
<text style="fill:#aaa" x="132" y="58">_</text>
<text style="fill:#aaa" x="138" y="58">/</text>
<text style="fill:#aaa" x="156" y="58">_</text>
<text style="fill:#aaa" x="162" y="58">/</text>
<text style="fill:#aaa" x="216" y="58">_</text>
<text style="fill:#aaa" x="222" y="58">/</text>
<text style="fill:#aaa" x="228" y="58">_</text>
<text style="fill:#aaa" x="234" y="58">/</text>
<text style="fill:#aaa" x="264" y="58">_</text>
<text style="fill:#aaa" x="270" y="58">/</text>
<text style="fill:#aaa" x="324" y="58">_</text>
<text style="fill:#aaa" x="330" y="58">/</text>
<text style="fill:#aaa" x="360" y="58">_</text>
<text style="fill:#aaa" x="366" y="58">/</text>
<text style="fill:#aaa" x="372" y="58">_</text>
<text style="fill:#aaa" x="378" y="58">/</text>
<text style="fill:#aaa" x="384" y="58">_</text>
<text style="fill:#aaa" x="390" y="58">/</text>
 </g>
</svg>
