<?xml version="1.0" encoding="UTF-8"?>
<svg width="240" height="60" viewBox="0 0 240 60" xmlns="http://www.w3.org/2000/svg" xmlns:xlink="http://www.w3.org/1999/xlink" xml:space="preserve" version="1.1"  baseProfile="full">
 <g id="mainlayer" font-size="10" style="font-family: monospace">
<rect style="fill:#000" x="0" y="0" width="6" height="10"/>
<rect style="fill:#000" x="6" y="0" width="6" height="10"/>
<rect style="fill:#000" x="12" y="0" width="6" height="10"/>
<rect style="fill:#000" x="18" y="0" width="6" height="10"/>
<rect style="fill:#000" x="24" y="0" width="6" height="10"/>
<rect style="fill:#000" x="30" y="0" width="6" height="10"/>
<rect style="fill:#000" x="36" y="0" width="6" height="10"/>
<rect style="fill:#000" x="42" y="0" width="6" height="10"/>
<rect style="fill:#000" x="48" y="0" width="6" height="10"/>
<rect style="fill:#000" x="54" y="0" width="6" height="10"/>
<rect style="fill:#000" x="60" y="0" width="6" height="10"/>
<rect style="fill:#000" x="66" y="0" width="6" height="10"/>
<rect style="fill:#000" x="72" y="0" width="6" height="10"/>
<rect style="fill:#000" x="78" y="0" width="6" height="10"/>
<rect style="fill:#000" x="84" y="0" width="6" height="10"/>
<rect style="fill:#000" x="90" y="0" width="6" height="10"/>
<rect style="fill:#000" x="96" y="0" width="6" height="10"/>
<rect style="fill:#000" x="102" y="0" width="6" height="10"/>
<rect style="fill:#000" x="108" y="0" width="6" height="10"/>
<rect style="fill:#000" x="114" y="0" width="6" height="10"/>
<rect style="fill:#000" x="120" y="0" width="6" height="10"/>
<rect style="fill:#000" x="126" y="0" width="6" height="10"/>
<rect style="fill:#000" x="132" y="0" width="6" height="10"/>
<rect style="fill:#000" x="138" y="0" width="6" height="10"/>
<rect style="fill:#000" x="144" y="0" width="6" height="10"/>
<rect style="fill:#000" x="150" y="0" width="6" height="10"/>
<rect style="fill:#000" x="156" y="0" width="6" height="10"/>
<rect style="fill:#000" x="162" y="0" width="6" height="10"/>
<rect style="fill:#000" x="168" y="0" width="6" height="10"/>
<rect style="fill:#000" x="174" y="0" width="6" height="10"/>
<rect style="fill:#000" x="180" y="0" width="6" height="10"/>
<rect style="fill:#000" x="186" y="0" width="6" height="10"/>
<rect style="fill:#000" x="192" y="0" width="6" height="10"/>
<rect style="fill:#000" x="198" y="0" width="6" height="10"/>
<rect style="fill:#000" x="204" y="0" width="6" height="10"/>
<rect style="fill:#000" x="210" y="0" width="6" height="10"/>
<rect style="fill:#000" x="216" y="0" width="6" height="10"/>
<rect style="fill:#000" x="222" y="0" width="6" height="10"/>
<rect style="fill:#000" x="228" y="0" width="6" height="10"/>
<rect style="fill:#000" x="234" y="0" width="6" height="10"/>
<rect style="fill:#000" x="0" y="10" width="6" height="10"/>
<rect style="fill:#000" x="6" y="10" width="6" height="10"/>
<rect style="fill:#000" x="12" y="10" width="6" height="10"/>
<rect style="fill:#000" x="18" y="10" width="6" height="10"/>
<rect style="fill:#000" x="24" y="10" width="6" height="10"/>
<rect style="fill:#000" x="30" y="10" width="6" height="10"/>
<rect style="fill:#000" x="36" y="10" width="6" height="10"/>
<rect style="fill:#000" x="42" y="10" width="6" height="10"/>
<rect style="fill:#000" x="48" y="10" width="6" height="10"/>
<rect style="fill:#000" x="54" y="10" width="6" height="10"/>
<rect style="fill:#000" x="60" y="10" width="6" height="10"/>
<rect style="fill:#000" x="66" y="10" width="6" height="10"/>
<rect style="fill:#000" x="72" y="10" width="6" height="10"/>
<rect style="fill:#000" x="78" y="10" width="6" height="10"/>
<rect style="fill:#000" x="84" y="10" width="6" height="10"/>
<rect style="fill:#000" x="90" y="10" width="6" height="10"/>
<rect style="fill:#000" x="96" y="10" width="6" height="10"/>
<rect style="fill:#000" x="102" y="10" width="6" height="10"/>
<rect style="fill:#000" x="108" y="10" width="6" height="10"/>
<rect style="fill:#000" x="114" y="10" width="6" height="10"/>
<rect style="fill:#000" x="120" y="10" width="6" height="10"/>
<rect style="fill:#000" x="126" y="10" width="6" height="10"/>
<rect style="fill:#000" x="132" y="10" width="6" height="10"/>
<rect style="fill:#000" x="138" y="10" width="6" height="10"/>
<rect style="fill:#000" x="144" y="10" width="6" height="10"/>
<rect style="fill:#000" x="150" y="10" width="6" height="10"/>
<rect style="fill:#000" x="156" y="10" width="6" height="10"/>
<rect style="fill:#000" x="162" y="10" width="6" height="10"/>
<rect style="fill:#000" x="168" y="10" width="6" height="10"/>
<rect style="fill:#000" x="174" y="10" width="6" height="10"/>
<rect style="fill:#000" x="180" y="10" width="6" height="10"/>
<rect style="fill:#000" x="186" y="10" width="6" height="10"/>
<rect style="fill:#000" x="192" y="10" width="6" height="10"/>
<rect style="fill:#000" x="198" y="10" width="6" height="10"/>
<rect style="fill:#000" x="204" y="10" width="6" height="10"/>
<rect style="fill:#000" x="210" y="10" width="6" height="10"/>
<rect style="fill:#000" x="216" y="10" width="6" height="10"/>
<rect style="fill:#000" x="222" y="10" width="6" height="10"/>
<rect style="fill:#000" x="228" y="10" width="6" height="10"/>
<rect style="fill:#000" x="234" y="10" width="6" height="10"/>
<rect style="fill:#000" x="0" y="20" width="6" height="10"/>
<rect style="fill:#000" x="6" y="20" width="6" height="10"/>
<rect style="fill:#000" x="12" y="20" width="6" height="10"/>
<rect style="fill:#000" x="18" y="20" width="6" height="10"/>
<rect style="fill:#000" x="24" y="20" width="6" height="10"/>
<rect style="fill:#000" x="30" y="20" width="6" height="10"/>
<rect style="fill:#000" x="36" y="20" width="6" height="10"/>
<rect style="fill:#000" x="42" y="20" width="6" height="10"/>
<rect style="fill:#000" x="48" y="20" width="6" height="10"/>
<rect style="fill:#000" x="54" y="20" width="6" height="10"/>
<rect style="fill:#000" x="60" y="20" width="6" height="10"/>
<rect style="fill:#000" x="66" y="20" width="6" height="10"/>
<rect style="fill:#000" x="72" y="20" width="6" height="10"/>
<rect style="fill:#000" x="78" y="20" width="6" height="10"/>
<rect style="fill:#000" x="84" y="20" width="6" height="10"/>
<rect style="fill:#000" x="90" y="20" width="6" height="10"/>
<rect style="fill:#000" x="96" y="20" width="6" height="10"/>
<rect style="fill:#000" x="102" y="20" width="6" height="10"/>
<rect style="fill:#000" x="108" y="20" width="6" height="10"/>
<rect style="fill:#000" x="114" y="20" width="6" height="10"/>
<rect style="fill:#000" x="120" y="20" width="6" height="10"/>
<rect style="fill:#000" x="126" y="20" width="6" height="10"/>
<rect style="fill:#000" x="132" y="20" width="6" height="10"/>
<rect style="fill:#000" x="138" y="20" width="6" height="10"/>
<rect style="fill:#000" x="144" y="20" width="6" height="10"/>
<rect style="fill:#000" x="150" y="20" width="6" height="10"/>
<rect style="fill:#000" x="156" y="20" width="6" height="10"/>
<rect style="fill:#000" x="162" y="20" width="6" height="10"/>
<rect style="fill:#000" x="168" y="20" width="6" height="10"/>
<rect style="fill:#000" x="174" y="20" width="6" height="10"/>
<rect style="fill:#000" x="180" y="20" width="6" height="10"/>
<rect style="fill:#000" x="186" y="20" width="6" height="10"/>
<rect style="fill:#000" x="192" y="20" width="6" height="10"/>
<rect style="fill:#000" x="198" y="20" width="6" height="10"/>
<rect style="fill:#000" x="204" y="20" width="6" height="10"/>
<rect style="fill:#000" x="210" y="20" width="6" height="10"/>
<rect style="fill:#000" x="216" y="20" width="6" height="10"/>
<rect style="fill:#000" x="222" y="20" width="6" height="10"/>
<rect style="fill:#000" x="228" y="20" width="6" height="10"/>
<rect style="fill:#000" x="234" y="20" width="6" height="10"/>
<rect style="fill:#000" x="0" y="30" width="6" height="10"/>
<rect style="fill:#000" x="6" y="30" width="6" height="10"/>
<rect style="fill:#000" x="12" y="30" width="6" height="10"/>
<rect style="fill:#000" x="18" y="30" width="6" height="10"/>
<rect style="fill:#000" x="24" y="30" width="6" height="10"/>
<rect style="fill:#000" x="30" y="30" width="6" height="10"/>
<rect style="fill:#000" x="36" y="30" width="6" height="10"/>
<rect style="fill:#000" x="42" y="30" width="6" height="10"/>
<rect style="fill:#000" x="48" y="30" width="6" height="10"/>
<rect style="fill:#000" x="54" y="30" width="6" height="10"/>
<rect style="fill:#000" x="60" y="30" width="6" height="10"/>
<rect style="fill:#000" x="66" y="30" width="6" height="10"/>
<rect style="fill:#000" x="72" y="30" width="6" height="10"/>
<rect style="fill:#000" x="78" y="30" width="6" height="10"/>
<rect style="fill:#000" x="84" y="30" width="6" height="10"/>
<rect style="fill:#000" x="90" y="30" width="6" height="10"/>
<rect style="fill:#000" x="96" y="30" width="6" height="10"/>
<rect style="fill:#000" x="102" y="30" width="6" height="10"/>
<rect style="fill:#000" x="108" y="30" width="6" height="10"/>
<rect style="fill:#000" x="114" y="30" width="6" height="10"/>
<rect style="fill:#000" x="120" y="30" width="6" height="10"/>
<rect style="fill:#000" x="126" y="30" width="6" height="10"/>
<rect style="fill:#000" x="132" y="30" width="6" height="10"/>
<rect style="fill:#000" x="138" y="30" width="6" height="10"/>
<rect style="fill:#000" x="144" y="30" width="6" height="10"/>
<rect style="fill:#000" x="150" y="30" width="6" height="10"/>
<rect style="fill:#000" x="156" y="30" width="6" height="10"/>
<rect style="fill:#000" x="162" y="30" width="6" height="10"/>
<rect style="fill:#000" x="168" y="30" width="6" height="10"/>
<rect style="fill:#000" x="174" y="30" width="6" height="10"/>
<rect style="fill:#000" x="180" y="30" width="6" height="10"/>
<rect style="fill:#000" x="186" y="30" width="6" height="10"/>
<rect style="fill:#000" x="192" y="30" width="6" height="10"/>
<rect style="fill:#000" x="198" y="30" width="6" height="10"/>
<rect style="fill:#000" x="204" y="30" width="6" height="10"/>
<rect style="fill:#000" x="210" y="30" width="6" height="10"/>
<rect style="fill:#000" x="216" y="30" width="6" height="10"/>
<rect style="fill:#000" x="222" y="30" width="6" height="10"/>
<rect style="fill:#000" x="228" y="30" width="6" height="10"/>
<rect style="fill:#000" x="234" y="30" width="6" height="10"/>
<rect style="fill:#000" x="0" y="40" width="6" height="10"/>
<rect style="fill:#000" x="6" y="40" width="6" height="10"/>
<rect style="fill:#000" x="12" y="40" width="6" height="10"/>
<rect style="fill:#000" x="18" y="40" width="6" height="10"/>
<rect style="fill:#000" x="24" y="40" width="6" height="10"/>
<rect style="fill:#000" x="30" y="40" width="6" height="10"/>
<rect style="fill:#000" x="36" y="40" width="6" height="10"/>
<rect style="fill:#000" x="42" y="40" width="6" height="10"/>
<rect style="fill:#000" x="48" y="40" width="6" height="10"/>
<rect style="fill:#000" x="54" y="40" width="6" height="10"/>
<rect style="fill:#000" x="60" y="40" width="6" height="10"/>
<rect style="fill:#000" x="66" y="40" width="6" height="10"/>
<rect style="fill:#000" x="72" y="40" width="6" height="10"/>
<rect style="fill:#000" x="78" y="40" width="6" height="10"/>
<rect style="fill:#000" x="84" y="40" width="6" height="10"/>
<rect style="fill:#000" x="90" y="40" width="6" height="10"/>
<rect style="fill:#000" x="96" y="40" width="6" height="10"/>
<rect style="fill:#000" x="102" y="40" width="6" height="10"/>
<rect style="fill:#000" x="108" y="40" width="6" height="10"/>
<rect style="fill:#000" x="114" y="40" width="6" height="10"/>
<rect style="fill:#000" x="120" y="40" width="6" height="10"/>
<rect style="fill:#000" x="126" y="40" width="6" height="10"/>
<rect style="fill:#000" x="132" y="40" width="6" height="10"/>
<rect style="fill:#000" x="138" y="40" width="6" height="10"/>
<rect style="fill:#000" x="144" y="40" width="6" height="10"/>
<rect style="fill:#000" x="150" y="40" width="6" height="10"/>
<rect style="fill:#000" x="156" y="40" width="6" height="10"/>
<rect style="fill:#000" x="162" y="40" width="6" height="10"/>
<rect style="fill:#000" x="168" y="40" width="6" height="10"/>
<rect style="fill:#000" x="174" y="40" width="6" height="10"/>
<rect style="fill:#000" x="180" y="40" width="6" height="10"/>
<rect style="fill:#000" x="186" y="40" width="6" height="10"/>
<rect style="fill:#000" x="192" y="40" width="6" height="10"/>
<rect style="fill:#000" x="198" y="40" width="6" height="10"/>
<rect style="fill:#000" x="204" y="40" width="6" height="10"/>
<rect style="fill:#000" x="210" y="40" width="6" height="10"/>
<rect style="fill:#000" x="216" y="40" width="6" height="10"/>
<rect style="fill:#000" x="222" y="40" width="6" height="10"/>
<rect style="fill:#000" x="228" y="40" width="6" height="10"/>
<rect style="fill:#000" x="234" y="40" width="6" height="10"/>
<rect style="fill:#000" x="0" y="50" width="6" height="10"/>
<rect style="fill:#000" x="6" y="50" width="6" height="10"/>
<rect style="fill:#000" x="12" y="50" width="6" height="10"/>
<rect style="fill:#000" x="18" y="50" width="6" height="10"/>
<rect style="fill:#000" x="24" y="50" width="6" height="10"/>
<rect style="fill:#000" x="30" y="50" width="6" height="10"/>
<rect style="fill:#000" x="36" y="50" width="6" height="10"/>
<rect style="fill:#000" x="42" y="50" width="6" height="10"/>
<rect style="fill:#000" x="48" y="50" width="6" height="10"/>
<rect style="fill:#000" x="54" y="50" width="6" height="10"/>
<rect style="fill:#000" x="60" y="50" width="6" height="10"/>
<rect style="fill:#000" x="66" y="50" width="6" height="10"/>
<rect style="fill:#000" x="72" y="50" width="6" height="10"/>
<rect style="fill:#000" x="78" y="50" width="6" height="10"/>
<rect style="fill:#000" x="84" y="50" width="6" height="10"/>
<rect style="fill:#000" x="90" y="50" width="6" height="10"/>
<rect style="fill:#000" x="96" y="50" width="6" height="10"/>
<rect style="fill:#000" x="102" y="50" width="6" height="10"/>
<rect style="fill:#000" x="108" y="50" width="6" height="10"/>
<rect style="fill:#000" x="114" y="50" width="6" height="10"/>
<rect style="fill:#000" x="120" y="50" width="6" height="10"/>
<rect style="fill:#000" x="126" y="50" width="6" height="10"/>
<rect style="fill:#000" x="132" y="50" width="6" height="10"/>
<rect style="fill:#000" x="138" y="50" width="6" height="10"/>
<rect style="fill:#000" x="144" y="50" width="6" height="10"/>
<rect style="fill:#000" x="150" y="50" width="6" height="10"/>
<rect style="fill:#000" x="156" y="50" width="6" height="10"/>
<rect style="fill:#000" x="162" y="50" width="6" height="10"/>
<rect style="fill:#000" x="168" y="50" width="6" height="10"/>
<rect style="fill:#000" x="174" y="50" width="6" height="10"/>
<rect style="fill:#000" x="180" y="50" width="6" height="10"/>
<rect style="fill:#000" x="186" y="50" width="6" height="10"/>
<rect style="fill:#000" x="192" y="50" width="6" height="10"/>
<rect style="fill:#000" x="198" y="50" width="6" height="10"/>
<rect style="fill:#000" x="204" y="50" width="6" height="10"/>
<rect style="fill:#000" x="210" y="50" width="6" height="10"/>
<rect style="fill:#000" x="216" y="50" width="6" height="10"/>
<rect style="fill:#000" x="222" y="50" width="6" height="10"/>
<rect style="fill:#000" x="228" y="50" width="6" height="10"/>
<rect style="fill:#000" x="234" y="50" width="6" height="10"/>
<text style="fill:#aaa" x="6" y="18">_</text>
<text style="fill:#aaa" x="12" y="18">_</text>
<text style="fill:#aaa" x="18" y="18">_</text>
<text style="fill:#aaa" x="24" y="18">_</text>
<text style="fill:#aaa" x="30" y="18">_</text>
<text style="fill:#aaa" x="66" y="18">_</text>
<text style="fill:#aaa" x="78" y="18">_</text>
<text style="fill:#aaa" x="120" y="18">_</text>
<text style="fill:#aaa" x="132" y="18">_</text>
<text style="fill:#aaa" x="144" y="18">_</text>
<text style="fill:#aaa" x="204" y="18">_</text>
<text style="fill:#aaa" x="228" y="18">_</text>
<text style="fill:#aaa" x="0" y="28">|</text>
<text style="fill:#aaa" x="18" y="28">|</text>
<text style="fill:#aaa" x="36" y="28">|</text>
<text style="fill:#aaa" x="42" y="28">_</text>
<text style="fill:#aaa" x="48" y="28">_</text>
<text style="fill:#aaa" x="54" y="28">_</text>
<text style="fill:#aaa" x="60" y="28">|</text>
<text style="fill:#aaa" x="72" y="28">|</text>
<text style="fill:#aaa" x="84" y="28">|</text>
<text style="fill:#aaa" x="90" y="28">_</text>
<text style="fill:#aaa" x="96" y="28">_</text>
<text style="fill:#aaa" x="102" y="28">_</text>
<text style="fill:#aaa" x="114" y="28">|</text>
<text style="fill:#aaa" x="126" y="28">|</text>
<text style="fill:#aaa" x="138" y="28">|</text>
<text style="fill:#aaa" x="150" y="28">|</text>
<text style="fill:#aaa" x="156" y="28">_</text>
<text style="fill:#aaa" x="162" y="28">_</text>
<text style="fill:#aaa" x="168" y="28">_</text>
<text style="fill:#aaa" x="180" y="28">_</text>
<text style="fill:#aaa" x="186" y="28">_</text>
<text style="fill:#aaa" x="192" y="28">_</text>
<text style="fill:#aaa" x="198" y="28">|</text>
<text style="fill:#aaa" x="210" y="28">|</text>
<text style="fill:#aaa" x="216" y="28">_</text>
<text style="fill:#aaa" x="222" y="28">|</text>
<text style="fill:#aaa" x="234" y="28">|</text>
<text style="fill:#aaa" x="0" y="38">|</text>
<text style="fill:#aaa" x="36" y="38">|</text>
<text style="fill:#aaa" x="48" y="38">-</text>
<text style="fill:#aaa" x="54" y="38">_</text>
<text style="fill:#aaa" x="60" y="38">|</text>
<text style="fill:#aaa" x="72" y="38">|</text>
<text style="fill:#aaa" x="84" y="38">|</text>
<text style="fill:#aaa" x="96" y="38">.</text>
<text style="fill:#aaa" x="114" y="38">|</text>
<text style="fill:#aaa" x="126" y="38">|</text>
<text style="fill:#aaa" x="138" y="38">|</text>
<text style="fill:#aaa" x="150" y="38">|</text>
<text style="fill:#aaa" x="162" y="38">.</text>
<text style="fill:#aaa" x="174" y="38">|</text>
<text style="fill:#aaa" x="192" y="38">_</text>
<text style="fill:#aaa" x="198" y="38">|</text>
<text style="fill:#aaa" x="210" y="38">|</text>
<text style="fill:#aaa" x="222" y="38">.</text>
<text style="fill:#aaa" x="234" y="38">|</text>
<text style="fill:#aaa" x="0" y="48">|</text>
<text style="fill:#aaa" x="6" y="48">_</text>
<text style="fill:#aaa" x="12" y="48">_</text>
<text style="fill:#aaa" x="18" y="48">|</text>
<text style="fill:#aaa" x="24" y="48">_</text>
<text style="fill:#aaa" x="30" y="48">_</text>
<text style="fill:#aaa" x="36" y="48">|</text>
<text style="fill:#aaa" x="42" y="48">_</text>
<text style="fill:#aaa" x="48" y="48">_</text>
<text style="fill:#aaa" x="54" y="48">_</text>
<text style="fill:#aaa" x="60" y="48">|</text>
<text style="fill:#aaa" x="66" y="48">_</text>
<text style="fill:#aaa" x="72" y="48">|</text>
<text style="fill:#aaa" x="78" y="48">_</text>
<text style="fill:#aaa" x="84" y="48">|</text>
<text style="fill:#aaa" x="90" y="48">_</text>
<text style="fill:#aaa" x="96" y="48">_</text>
<text style="fill:#aaa" x="102" y="48">_</text>
<text style="fill:#aaa" x="114" y="48">|</text>
<text style="fill:#aaa" x="120" y="48">_</text>
<text style="fill:#aaa" x="126" y="48">_</text>
<text style="fill:#aaa" x="132" y="48">_</text>
<text style="fill:#aaa" x="138" y="48">_</text>
<text style="fill:#aaa" x="144" y="48">_</text>
<text style="fill:#aaa" x="150" y="48">|</text>
<text style="fill:#aaa" x="156" y="48">_</text>
<text style="fill:#aaa" x="162" y="48">_</text>
<text style="fill:#aaa" x="168" y="48">_</text>
<text style="fill:#aaa" x="174" y="48">|</text>
<text style="fill:#aaa" x="180" y="48">_</text>
<text style="fill:#aaa" x="186" y="48">|</text>
<text style="fill:#aaa" x="198" y="48">|</text>
<text style="fill:#aaa" x="204" y="48">_</text>
<text style="fill:#aaa" x="210" y="48">|</text>
<text style="fill:#aaa" x="216" y="48">_</text>
<text style="fill:#aaa" x="222" y="48">_</text>
<text style="fill:#aaa" x="228" y="48">_</text>
<text style="fill:#aaa" x="234" y="48">|</text>
 </g>
</svg>
